<?xml version="1.0" encoding="utf-8"?><!-- Uploaded to: SVG Repo, www.svgrepo.com, Generator: SVG Repo Mixer Tools -->
<svg width="800px" height="800px" viewBox="0 0 24 24" fill="none" xmlns="http://www.w3.org/2000/svg">
<path d="M12.7941 4.03452C12.7941 3.60124 12.4386 3.25 12 3.25C11.5614 3.25 11.2059 3.60124 11.2059 4.03452V8.2186C11.2059 8.65187 11.5614 9.00311 12 9.00311C12.4386 9.00311 12.7941 8.65187 12.7941 8.2186V4.03452Z" fill="#d63031"/>
<path d="M18.364 5.57182C18.0538 5.26545 17.551 5.26545 17.2409 5.57182C16.9308 5.87819 16.9308 6.37492 17.2409 6.68129C18.2775 7.70531 18.9834 9.00999 19.2693 10.4303C19.5553 11.8507 19.4086 13.3229 18.8476 14.6609C18.2866 15.9988 17.3366 17.1424 16.1178 17.947C14.8989 18.7515 13.4659 19.181 12 19.181C10.5341 19.181 9.10111 18.7515 7.88225 17.947C6.66339 17.1424 5.71341 15.9988 5.15243 14.6609C4.59145 13.323 4.44467 11.8507 4.73065 10.4304C5.01663 9.01 5.72253 7.70532 6.75908 6.6813C7.06921 6.37493 7.06921 5.8782 6.75908 5.57183C6.44896 5.26546 5.94615 5.26546 5.63603 5.57183C4.37736 6.81528 3.5202 8.39954 3.17293 10.1243C2.82567 11.849 3.0039 13.6367 3.68509 15.2613C4.36628 16.886 5.51984 18.2746 6.99988 19.2516C8.47992 20.2285 10.22 20.75 12 20.75C13.78 20.75 15.5201 20.2285 17.0001 19.2516C18.4802 18.2746 19.6337 16.886 20.3149 15.2613C20.9961 13.6367 21.1743 11.849 20.8271 10.1242C20.4798 8.39953 19.6226 6.81527 18.364 5.57182Z" fill="#d63031"/>
</svg>